<mxfile host="app.diagrams.net" modified="2022-12-09T07:04:40.244Z" agent="5.0 (Windows NT 10.0; Win64; x64) AppleWebKit/537.36 (KHTML, like Gecko) Chrome/107.0.0.0 Safari/537.36" etag="Ln6xMwDkQxwnoeWUE_zT" version="20.6.2" type="github">
  <diagram id="kgpKYQtTHZ0yAKxKKP6v" name="Page-1">
    <mxGraphModel dx="782" dy="428" grid="1" gridSize="10" guides="1" tooltips="1" connect="1" arrows="1" fold="1" page="1" pageScale="1" pageWidth="850" pageHeight="1100" math="0" shadow="0">
      <root>
        <mxCell id="0" />
        <mxCell id="1" parent="0" />
        <mxCell id="3nuBFxr9cyL0pnOWT2aG-1" value="Main Platform" style="shape=umlLifeline;perimeter=lifelinePerimeter;container=1;collapsible=0;recursiveResize=0;rounded=0;shadow=0;strokeWidth=1;" parent="1" vertex="1">
          <mxGeometry x="250" y="80" width="100" height="400" as="geometry" />
        </mxCell>
        <mxCell id="3nuBFxr9cyL0pnOWT2aG-2" value="" style="points=[];perimeter=orthogonalPerimeter;rounded=0;shadow=0;strokeWidth=1;" parent="3nuBFxr9cyL0pnOWT2aG-1" vertex="1">
          <mxGeometry x="45" y="70" width="10" height="260" as="geometry" />
        </mxCell>
        <mxCell id="7Csi6WgGqUAuOyaG3KP2-10" value="2：登录" style="verticalAlign=bottom;startArrow=oval;endArrow=block;startSize=8;shadow=0;strokeWidth=1;exitX=1.5;exitY=0.053;exitDx=0;exitDy=0;exitPerimeter=0;" parent="3nuBFxr9cyL0pnOWT2aG-1" edge="1">
          <mxGeometry x="0.0909" relative="1" as="geometry">
            <mxPoint x="60" y="90.07000000000005" as="sourcePoint" />
            <mxPoint x="60" y="120" as="targetPoint" />
            <Array as="points">
              <mxPoint x="100" y="90" />
              <mxPoint x="100" y="120" />
            </Array>
            <mxPoint as="offset" />
          </mxGeometry>
        </mxCell>
        <mxCell id="3nuBFxr9cyL0pnOWT2aG-5" value="Business Platform" style="shape=umlLifeline;perimeter=lifelinePerimeter;container=1;collapsible=0;recursiveResize=0;rounded=0;shadow=0;strokeWidth=1;" parent="1" vertex="1">
          <mxGeometry x="510" y="80" width="100" height="390" as="geometry" />
        </mxCell>
        <mxCell id="vSWq6A5dJCgkSZAUsgRE-13" value="5：获取权限" style="verticalAlign=bottom;startArrow=oval;endArrow=block;startSize=8;shadow=0;strokeWidth=1;exitX=1.5;exitY=0.053;exitDx=0;exitDy=0;exitPerimeter=0;" edge="1" parent="3nuBFxr9cyL0pnOWT2aG-5">
          <mxGeometry x="0.0909" y="15" relative="1" as="geometry">
            <mxPoint x="55" y="320.07000000000005" as="sourcePoint" />
            <mxPoint x="55" y="350" as="targetPoint" />
            <Array as="points">
              <mxPoint x="95" y="320" />
              <mxPoint x="95" y="350" />
            </Array>
            <mxPoint as="offset" />
          </mxGeometry>
        </mxCell>
        <mxCell id="3nuBFxr9cyL0pnOWT2aG-7" value="4:User Authorization Request" style="verticalAlign=bottom;endArrow=open;dashed=1;endSize=8;shadow=0;strokeWidth=1;" parent="1" target="3nuBFxr9cyL0pnOWT2aG-2" edge="1">
          <mxGeometry relative="1" as="geometry">
            <mxPoint x="275" y="236" as="targetPoint" />
            <mxPoint x="550" y="250" as="sourcePoint" />
            <Array as="points">
              <mxPoint x="480" y="250" />
              <mxPoint x="400" y="250" />
            </Array>
          </mxGeometry>
        </mxCell>
        <mxCell id="3nuBFxr9cyL0pnOWT2aG-10" value="4.1:Authorization Code Grant" style="verticalAlign=bottom;endArrow=open;dashed=1;endSize=8;shadow=0;strokeWidth=1;" parent="1" edge="1">
          <mxGeometry relative="1" as="geometry">
            <mxPoint x="550" y="280" as="targetPoint" />
            <Array as="points">
              <mxPoint x="450" y="280" />
            </Array>
            <mxPoint x="310" y="280" as="sourcePoint" />
          </mxGeometry>
        </mxCell>
        <mxCell id="7Csi6WgGqUAuOyaG3KP2-1" value="User" style="shape=umlLifeline;perimeter=lifelinePerimeter;container=1;collapsible=0;recursiveResize=0;rounded=0;shadow=0;strokeWidth=1;" parent="1" vertex="1">
          <mxGeometry x="60" y="80" width="100" height="400" as="geometry" />
        </mxCell>
        <mxCell id="7Csi6WgGqUAuOyaG3KP2-2" value="" style="points=[];perimeter=orthogonalPerimeter;rounded=0;shadow=0;strokeWidth=1;" parent="7Csi6WgGqUAuOyaG3KP2-1" vertex="1">
          <mxGeometry x="45" y="70" width="10" height="300" as="geometry" />
        </mxCell>
        <mxCell id="3nuBFxr9cyL0pnOWT2aG-3" value="1：访问" style="verticalAlign=bottom;startArrow=oval;endArrow=block;startSize=8;shadow=0;strokeWidth=1;exitX=1.5;exitY=0.053;exitDx=0;exitDy=0;exitPerimeter=0;" parent="1" source="7Csi6WgGqUAuOyaG3KP2-2" target="3nuBFxr9cyL0pnOWT2aG-2" edge="1">
          <mxGeometry relative="1" as="geometry">
            <mxPoint x="205" y="150" as="sourcePoint" />
          </mxGeometry>
        </mxCell>
        <mxCell id="7Csi6WgGqUAuOyaG3KP2-12" value="3：Choice Business Platform" style="verticalAlign=bottom;startArrow=oval;endArrow=block;startSize=8;shadow=0;strokeWidth=1;exitX=1.5;exitY=0.053;exitDx=0;exitDy=0;exitPerimeter=0;" parent="1" edge="1">
          <mxGeometry relative="1" as="geometry">
            <mxPoint x="310" y="220.00000000000006" as="sourcePoint" />
            <mxPoint x="550" y="220" as="targetPoint" />
          </mxGeometry>
        </mxCell>
        <mxCell id="vSWq6A5dJCgkSZAUsgRE-1" value="4.2: Access Token Request" style="verticalAlign=bottom;endArrow=open;dashed=1;endSize=8;shadow=0;strokeWidth=1;" edge="1" parent="1">
          <mxGeometry relative="1" as="geometry">
            <mxPoint x="303" y="310" as="targetPoint" />
            <mxPoint x="548" y="310" as="sourcePoint" />
            <Array as="points">
              <mxPoint x="478" y="310" />
              <mxPoint x="398" y="310" />
            </Array>
          </mxGeometry>
        </mxCell>
        <mxCell id="vSWq6A5dJCgkSZAUsgRE-2" value="4.3:Access Token Grant" style="verticalAlign=bottom;endArrow=open;dashed=1;endSize=8;shadow=0;strokeWidth=1;" edge="1" parent="1">
          <mxGeometry relative="1" as="geometry">
            <mxPoint x="550" y="340" as="targetPoint" />
            <Array as="points">
              <mxPoint x="450" y="340" />
            </Array>
            <mxPoint x="310" y="340" as="sourcePoint" />
          </mxGeometry>
        </mxCell>
        <mxCell id="vSWq6A5dJCgkSZAUsgRE-11" value="4.5:跳转" style="verticalAlign=bottom;endArrow=open;dashed=1;endSize=8;shadow=0;strokeWidth=1;entryX=-0.433;entryY=0.722;entryDx=0;entryDy=0;entryPerimeter=0;" edge="1" parent="1" target="3nuBFxr9cyL0pnOWT2aG-6">
          <mxGeometry relative="1" as="geometry">
            <mxPoint x="550" y="380" as="targetPoint" />
            <Array as="points">
              <mxPoint x="450" y="380" />
            </Array>
            <mxPoint x="310" y="380" as="sourcePoint" />
          </mxGeometry>
        </mxCell>
        <mxCell id="vSWq6A5dJCgkSZAUsgRE-14" value="6：跳转成功" style="verticalAlign=bottom;startArrow=none;endArrow=block;startSize=8;shadow=0;strokeWidth=1;entryX=1.033;entryY=0.982;entryDx=0;entryDy=0;entryPerimeter=0;exitX=-0.167;exitY=0.947;exitDx=0;exitDy=0;exitPerimeter=0;" edge="1" parent="1" source="3nuBFxr9cyL0pnOWT2aG-6" target="7Csi6WgGqUAuOyaG3KP2-2">
          <mxGeometry relative="1" as="geometry">
            <mxPoint x="540" y="445" as="sourcePoint" />
            <mxPoint x="560" y="230" as="targetPoint" />
          </mxGeometry>
        </mxCell>
        <mxCell id="3nuBFxr9cyL0pnOWT2aG-6" value="" style="points=[];perimeter=orthogonalPerimeter;rounded=0;shadow=0;strokeWidth=1;" parent="1" vertex="1">
          <mxGeometry x="555" y="170" width="10" height="290" as="geometry" />
        </mxCell>
      </root>
    </mxGraphModel>
  </diagram>
</mxfile>
